<?xml version="1.0" encoding="UTF-8" standalone="no"?>
<svg
   xmlns:dc="http://purl.org/dc/elements/1.1/"
   xmlns:cc="http://creativecommons.org/ns#"
   xmlns:rdf="http://www.w3.org/1999/02/22-rdf-syntax-ns#"
   xmlns:svg="http://www.w3.org/2000/svg"
   xmlns="http://www.w3.org/2000/svg"
   version="1.1"
   id="svg2"
   viewBox="0 0 120.9375 188.4375"
   height="201"
   width="129">
  <defs
     id="defs4" />
  <metadata
     id="metadata7">
    <rdf:RDF>
      <cc:Work
         rdf:about="">
        <dc:format>image/svg+xml</dc:format>
        <dc:type
           rdf:resource="http://purl.org/dc/dcmitype/StillImage" />
        <dc:title></dc:title>
      </cc:Work>
    </rdf:RDF>
  </metadata>
  <g
     transform="translate(0,-863.92462)"
     id="layer1">
    <g
       style="font-style:normal;font-weight:normal;font-size:40px;line-height:125%;font-family:sans-serif;letter-spacing:0px;word-spacing:0px;fill:#000000;fill-opacity:1;stroke:none;stroke-width:1px;stroke-linecap:butt;stroke-linejoin:miter;stroke-opacity:1"
       id="g1058"
       transform="matrix(0.55016174,0,0,0.55016174,-92.741834,676.99322)">
      <path
         style="font-style:normal;font-variant:normal;font-weight:900;font-stretch:normal;font-size:375px;font-family:Arial;-inkscape-font-specification:'Arial Heavy';stroke-width:0.57659471px"
         d="m 349.26562,867.58984 v 126.81055 h 35.41993 V 867.58984 Z m 53.41993,0 v 31.46094 h 3.26953 c 8.93892,0 15.02791,1.68987 18.26562,5.06836 3.23772,3.37848 4.85547,7.49695 4.85547,12.35352 0,4.99734 -1.86529,9.11385 -5.5957,12.35156 -3.73041,3.16733 -10.20338,4.75 -19.42383,4.75 h -1.37109 v 31.35742 h 15.83398 c 19.28551,0 33.60755,-4.39912 42.96875,-13.19726 9.4316,-8.79815 14.14844,-21.00928 14.14844,-36.63477 0,-15.2032 -4.32896,-26.92315 -12.98633,-35.1582 -8.58698,-8.23506 -21.53683,-12.35157 -38.85156,-12.35157 z"
         transform="matrix(1.7343205,0,0,1.7343205,-437.16658,-1164.9035)"
         id="path1056" />
    </g>
    <path
       style="fill:#000000;fill-opacity:1;fill-rule:evenodd;stroke:none;stroke-width:0.55016178px;stroke-linecap:butt;stroke-linejoin:miter;stroke-opacity:1"
       d="m 1.781525e-4,999.23327 v 22.15693 H 110.4258 v -22.15693 z"
       id="path1060" />
    <flowRoot
       xml:space="preserve"
       id="flowRoot1068"
       style="font-style:normal;font-weight:normal;line-height:0.01%;font-family:sans-serif;text-align:start;letter-spacing:4.44999981px;word-spacing:0px;text-anchor:start;fill:#000000;fill-opacity:1;stroke:none;stroke-width:1px;stroke-linecap:butt;stroke-linejoin:miter;stroke-opacity:1"
       transform="matrix(0.55016174,0,0,0.55016174,-99.827316,685.83054)"><flowRegion
         id="flowRegion1064"><rect
           id="rect1062"
           width="236.42856"
           height="51.428596"
           x="177.85715"
           y="629.50507"
           style="text-align:start;letter-spacing:4.44999981px;text-anchor:start" /></flowRegion><flowPara
         id="flowPara1066"
         style="font-style:normal;font-variant:normal;font-weight:bold;font-stretch:normal;font-size:40px;line-height:1.25;font-family:'Open Sans';-inkscape-font-specification:'Open Sans Bold';text-align:start;letter-spacing:4.44999981px;text-anchor:start">PROLING</flowPara></flowRoot>  </g>
</svg>
